M48
;GenerationSoftware,Autodesk,EAGLE,9.6.2*%
;CreationDate,2025-12-05T19:45:18Z*%
FMAT,2
ICI,OFF
METRIC,TZ,000.000
T10C0.300
T9C0.330
T8C0.610
T7C0.800
T6C1.000
T5C1.016
T4C1.200
T3C1.500
T2C1.600
T1C3.000
%
G90
M71
T1
X3000Y-3000
X119000Y-3000
X119000Y42000
X3000Y42000
T2
X11000Y14000
X42000Y28000
T3
X112500Y32000
X104500Y32000
X74500Y32000
X89500Y36000
X85500Y40000
X55500Y40000
X93500Y40000
X93500Y32000
X85500Y32000
X70500Y36000
X66500Y40000
X74500Y40000
X104500Y40000
X51500Y36000
X47500Y40000
X55500Y32000
X47500Y32000
X32500Y36000
X28500Y40000
X36500Y40000
X9500Y32000
X17500Y32000
X17500Y40000
X9500Y40000
X13500Y36000
X28500Y32000
X36500Y32000
X108500Y36000
X112500Y40000
X66500Y32000
T4
X107780Y-3000
X104280Y-3000
X97280Y-3000
X93780Y-3000
X90280Y-3000
X86780Y-3000
X100780Y-3000
X111280Y-3000
T5
X55560Y14000
X60640Y14000
X58100Y14000
T6
X26270Y1960
X26270Y4500
X26270Y7040
X26270Y9580
X23730Y-580
X23730Y9580
X23730Y7040
X23730Y4500
X26270Y-580
X23730Y1960
T7
X2400Y7200
X2400Y4200
T8
X51400Y7040
X51400Y1960
T9
X17375Y26400
X34975Y26400
X112100Y26500
X93700Y26400
X74675Y26400
X54875Y26500
T10
X41200Y17700
X37400Y21100
X32500Y23600
X25000Y22700
X43600Y23500
X49400Y25600
X74900Y14700
X74700Y12200
X46900Y9900
X19600Y-3700
X9000Y5500
X6800Y11700
X8800Y8000
X8400Y2100
X15200Y3800
X20300Y1500
X20700Y22300
X42600Y6800
X41600Y4800
X39000Y2700
X50700Y4500
X46900Y2800
X49700Y6300
X31100Y200
X47700Y23300
X34100Y19000
X28200Y23200
X9800Y23200
X82900Y16800
X86200Y13200
X92500Y14300
X80000Y28100
X83100Y24900
X84500Y21600
X91000Y18700
X114400Y25800
X114000Y9900
X65700Y25400
X63800Y27500
X59700Y27400
X56300Y25200
X59900Y20500
X52200Y23100
X42000Y34700
X60900Y35100
X22400Y34900
X6200Y35500
X28400Y3400
X18500Y7200
X15100Y-900
X9000Y14900
X45300Y12900
X49600Y12100
X73800Y8300
X80400Y13900
X57800Y18000
X72200Y33900
X73900Y36800
X44800Y-500
X14300Y23100
X101100Y15100
X30000Y5100
X31200Y-1100
X49900Y-4400
X53300Y-3200
X56400Y-3100
X66000Y1600
X74700Y19400
X70400Y20200
X70400Y22800
X72900Y25200
X36600Y19200
X15000Y19200
X16500Y13900
X96900Y13800
X13050Y5850
X12150Y6750
X7600Y6100
X30000Y3050
X27900Y-1650
X23600Y24900
X99400Y600
X28575Y25725
X69800Y1600
X62300Y-3300
X84100Y10300
X54700Y4400
X60000Y6900
X88400Y-4200
X33300Y2250
X33300Y4950
X17800Y2600
X37050Y-2850
X38400Y-2400
X80850Y22950
X74400Y16500
X42300Y10500
X39600Y7800
X83850Y19950
X77400Y13500
X51750Y9750
X39300Y5250
X86400Y17400
X79950Y10950
X52500Y9750
X38700Y4650
X70000Y-3700
X37800Y1900
X43050Y1650
X47550Y1650
X39400Y10900
X19000Y21300
X38100Y7800
X46200Y11700
X41250Y7200
X44850Y3600
X89900Y25100
X83700Y2800
X40650Y8100
X41850Y8100
X110300Y21700
X98900Y2000
X92000Y2000
X91700Y7800
X98700Y7400
X109700Y-5200
X109100Y2000
X102000Y30500
X82900Y30600
X63900Y30600
X42200Y40100
X44800Y30700
X22900Y28600
X7800Y26900
X26500Y27600
X46400Y27600
X49400Y19500
X29700Y19400
X11600Y19500
X20300Y18000
X37800Y18000
X63300Y18700
X76500Y16800
X76800Y24000
X96800Y23200
X96800Y20000
X96800Y17000
X53500Y19200
X104700Y21500
X104500Y14000
X103700Y27500
X85200Y27500
X14200Y10300
X15000Y6800
X10800Y-1200
X6700Y7000
X4300Y1100
X4500Y10400
X66000Y-3300
X111400Y10700
X69300Y14400
X45500Y8500
X31800Y13800
X30100Y10900
X30000Y7500
X16900Y9900
X60600Y24600
X42800Y-300
X40500Y-1700
X36800Y2500
X38900Y6400
X36500Y7700
X34000Y6700
X63200Y8300
X23600Y15700
X28300Y16600
X37300Y11500
X94050Y3400
M30