G04 EAGLE Gerber RS-274X export*
G75*
%MOMM*%
%FSLAX34Y34*%
%LPD*%
%INSolderpaste Top*%
%IPPOS*%
%AMOC8*
5,1,8,0,0,1.08239X$1,22.5*%
G01*
%ADD10R,1.200000X0.300000*%
%ADD11R,0.300000X1.200000*%
%ADD12R,0.550000X0.900000*%
%ADD13R,2.000000X2.100000*%
%ADD14R,1.900000X1.600000*%
%ADD15R,1.350000X0.400000*%
%ADD16R,0.700000X0.900000*%
%ADD17R,0.900000X0.700000*%
%ADD18R,2.200000X0.600000*%
%ADD19R,1.000000X3.400000*%
%ADD20R,1.500000X3.600000*%
%ADD21R,0.800000X0.800000*%
%ADD22R,1.200000X2.500000*%
%ADD23R,0.900000X0.950000*%


D10*
X437500Y22500D03*
X437500Y27500D03*
X437500Y32500D03*
X437500Y37500D03*
X437500Y42500D03*
X437500Y47500D03*
X437500Y52500D03*
X437500Y57500D03*
X437500Y62500D03*
X437500Y67500D03*
X437500Y72500D03*
X437500Y77500D03*
D11*
X422500Y92500D03*
X417500Y92500D03*
X412500Y92500D03*
X407500Y92500D03*
X402500Y92500D03*
X397500Y92500D03*
X392500Y92500D03*
X387500Y92500D03*
X382500Y92500D03*
X377500Y92500D03*
X372500Y92500D03*
X367500Y92500D03*
D10*
X352500Y77500D03*
X352500Y72500D03*
X352500Y67500D03*
X352500Y62500D03*
X352500Y57500D03*
X352500Y52500D03*
X352500Y47500D03*
X352500Y42500D03*
X352500Y37500D03*
X352500Y32500D03*
X352500Y27500D03*
X352500Y22500D03*
D11*
X367500Y7500D03*
X372500Y7500D03*
X377500Y7500D03*
X382500Y7500D03*
X387500Y7500D03*
X392500Y7500D03*
X397500Y7500D03*
X402500Y7500D03*
X407500Y7500D03*
X412500Y7500D03*
X417500Y7500D03*
X422500Y7500D03*
D12*
X142000Y95500D03*
X132500Y95500D03*
X151500Y95500D03*
X151500Y120500D03*
X132500Y120500D03*
D13*
X49500Y88000D03*
X49500Y26000D03*
D14*
X26000Y98000D03*
X26000Y16000D03*
D15*
X52750Y70000D03*
X52750Y63500D03*
X52750Y57000D03*
X52750Y50500D03*
X52750Y44000D03*
D16*
X557500Y70000D03*
X570500Y70000D03*
X557500Y19000D03*
X570500Y19000D03*
X331500Y129000D03*
X318500Y129000D03*
D17*
X325000Y83500D03*
X325000Y96500D03*
X464000Y84500D03*
X464000Y71500D03*
X402000Y120500D03*
X402000Y133500D03*
X461000Y-500D03*
X461000Y-13500D03*
D16*
X130500Y68000D03*
X143500Y68000D03*
D17*
X97000Y114500D03*
X97000Y101500D03*
X177000Y114500D03*
X177000Y101500D03*
X323000Y18500D03*
X323000Y31500D03*
D16*
X396500Y-34000D03*
X383500Y-34000D03*
X423500Y-34000D03*
X436500Y-34000D03*
D18*
X124000Y6350D03*
X176000Y6350D03*
X124000Y19050D03*
X124000Y-6350D03*
X124000Y-19050D03*
X176000Y19050D03*
X176000Y-6350D03*
X176000Y-19050D03*
D16*
X961500Y232000D03*
X948500Y232000D03*
X961500Y201000D03*
X948500Y201000D03*
X961500Y170000D03*
X948500Y170000D03*
D19*
X650000Y-22000D03*
X670000Y-22000D03*
D20*
X626000Y53000D03*
X814000Y53000D03*
D19*
X690000Y-22000D03*
X710000Y-22000D03*
X730000Y-22000D03*
X750000Y-22000D03*
X770000Y-22000D03*
X790000Y-22000D03*
D16*
X198500Y245000D03*
X211500Y245000D03*
D18*
X119000Y226350D03*
X171000Y226350D03*
X119000Y239050D03*
X119000Y213650D03*
X119000Y200950D03*
X171000Y239050D03*
X171000Y213650D03*
X171000Y200950D03*
D16*
X156500Y180000D03*
X143500Y180000D03*
X183500Y180000D03*
X196500Y180000D03*
D17*
X75000Y211500D03*
X75000Y198500D03*
X75000Y251500D03*
X75000Y238500D03*
D16*
X373500Y245000D03*
X386500Y245000D03*
D18*
X299000Y226350D03*
X351000Y226350D03*
X299000Y239050D03*
X299000Y213650D03*
X299000Y200950D03*
X351000Y239050D03*
X351000Y213650D03*
X351000Y200950D03*
D16*
X331500Y180000D03*
X318500Y180000D03*
X358500Y180000D03*
X371500Y180000D03*
D17*
X260000Y211500D03*
X260000Y198500D03*
X260000Y251500D03*
X260000Y238500D03*
D16*
X578500Y245000D03*
X591500Y245000D03*
D18*
X494000Y226350D03*
X546000Y226350D03*
X494000Y239050D03*
X494000Y213650D03*
X494000Y200950D03*
X546000Y239050D03*
X546000Y213650D03*
X546000Y200950D03*
D16*
X531500Y180000D03*
X518500Y180000D03*
X558500Y180000D03*
X571500Y180000D03*
D17*
X455000Y211500D03*
X455000Y198500D03*
X455000Y251500D03*
X455000Y238500D03*
D21*
X887500Y230000D03*
X872500Y230000D03*
X887500Y200000D03*
X872500Y200000D03*
X887500Y170000D03*
X872500Y170000D03*
D16*
X748500Y240000D03*
X761500Y240000D03*
D18*
X674000Y226350D03*
X726000Y226350D03*
X674000Y239050D03*
X674000Y213650D03*
X674000Y200950D03*
X726000Y239050D03*
X726000Y213650D03*
X726000Y200950D03*
D17*
X633000Y243500D03*
X633000Y230500D03*
X633000Y206500D03*
X633000Y193500D03*
D16*
X113500Y161000D03*
X100500Y161000D03*
D21*
X80500Y161000D03*
X65500Y161000D03*
D22*
X1105000Y230000D03*
X1080000Y230000D03*
X1055000Y230000D03*
X1055000Y150000D03*
X1080000Y150000D03*
X1105000Y150000D03*
D16*
X961500Y138000D03*
X948500Y138000D03*
D21*
X886500Y138000D03*
X871500Y138000D03*
D17*
X756000Y203500D03*
X756000Y216500D03*
X756000Y172500D03*
X756000Y185500D03*
D16*
X723500Y178000D03*
X710500Y178000D03*
X678500Y178000D03*
X691500Y178000D03*
X680500Y119000D03*
X667500Y119000D03*
D23*
X128750Y275000D03*
X97250Y275000D03*
X173750Y275000D03*
X142250Y275000D03*
X303750Y275000D03*
X272250Y275000D03*
X349750Y275000D03*
X318250Y275000D03*
X502750Y275000D03*
X471250Y275000D03*
X548750Y275000D03*
X517250Y275000D03*
X701750Y275000D03*
X670250Y275000D03*
X746750Y275000D03*
X715250Y275000D03*
X891750Y275000D03*
X860250Y275000D03*
X936750Y275000D03*
X905250Y275000D03*
X1076750Y275000D03*
X1045250Y275000D03*
X1121750Y275000D03*
X1090250Y275000D03*
M02*
